<svg xmlns="http://www.w3.org/2000/svg" fill="none" viewBox="0 0 46 63"><path fill="#000" d="M22.18 62.76c-10.75 0-17.88-1.33-21.4-3.99V42.33c.1.03.45.13 1.05.33l2.33.71c2.18.67 4.46 1.3 6.86 1.9 2.41.58 4.35.87 5.81.87 2.4 0 3.59-.73 3.59-2.2 0-1.12-1.03-2.31-3.09-3.58-.93-.58-2-1.17-3.2-1.8a57.28 57.28 0 0 1-3.58-2.08c-3-1.84-5.4-4-7.22-6.46C1.54 27.56.64 24.45.64 20.7c0-8.2 4.33-13.72 13-16.55A39.2 39.2 0 0 1 25.8 2.42a70.54 70.54 0 0 1 16.51 2.05v16.47c-6.5-1.39-11.18-2.08-14.03-2.08-1.1 0-1.93.19-2.48.57-.55.39-.82.82-.82 1.3 0 .47.24.98.72 1.5.47.5 1.3 1.02 2.47 1.55 1.17.5 2.54 1.12 4.1 1.86 1.57.72 3.05 1.5 4.4 2.34 6.13 3.75 9.2 8.88 9.2 15.4 0 6.17-2.08 10.94-6.25 14.31-4.2 3.35-10.02 5.04-17.44 5.07Z"/><path fill="#91A8EB" d="M22.3 52.98c-9.34 0-15.54-1.15-18.6-3.46v-14.3l.9.29 2.04.62c1.89.58 3.88 1.13 5.96 1.65 2.1.5 3.79.75 5.05.75 2.09 0 3.13-.63 3.13-1.9 0-.98-.9-2.02-2.69-3.12a44.5 44.5 0 0 0-2.78-1.56 49.8 49.8 0 0 1-3.12-1.81 22 22 0 0 1-6.27-5.62c-1.56-2.14-2.34-4.85-2.34-8.11 0-7.14 3.76-11.94 11.3-14.4 3.06-1 6.58-1.5 10.58-1.5A61.34 61.34 0 0 1 39.8 2.3v14.32c-5.66-1.2-9.72-1.8-12.2-1.8-.96 0-1.67.16-2.15.5-.48.33-.72.7-.72 1.12 0 .41.2.85.62 1.3.42.44 1.14.9 2.16 1.35 1.02.44 2.2.98 3.56 1.62 1.37.63 2.65 1.3 3.83 2.03 5.33 3.27 8 7.73 8 13.4 0 5.36-1.82 9.51-5.44 12.44-3.66 2.92-8.71 4.38-15.17 4.4Z"/></svg>