<svg xmlns="http://www.w3.org/2000/svg" fill="none" viewBox="0 0 241 38"><path fill="#000" d="M32.25 19.91c1.08 0 1.97.16 2.68.47a4 4 0 0 1 1.68 1.21c.4.5.66 1.04.76 1.62l-3.34 1.1a2.63 2.63 0 0 0-.55-1.35c-.25-.32-.63-.47-1.13-.47a2 2 0 0 0-1.14.32c-.3.2-.53.52-.69.98-.15.43-.23 1-.23 1.7s.09 1.26.26 1.7c.17.42.4.74.72.93.31.19.68.28 1.1.28.36 0 .65-.06.88-.2.24-.13.44-.33.6-.59.15-.25.25-.56.3-.93l3.24 1.04c-.1.62-.36 1.18-.8 1.68-.43.48-1 .86-1.7 1.15-.71.28-1.54.42-2.5.42a6.82 6.82 0 0 1-3.03-.63 4.69 4.69 0 0 1-2-1.9 6.05 6.05 0 0 1-.7-3c0-1.16.23-2.15.7-2.97a4.58 4.58 0 0 1 1.95-1.9 6.3 6.3 0 0 1 2.94-.66ZM39.27 30.76V15.62h3.62v6.44a3.4 3.4 0 0 1 1.34-1.6 3.7 3.7 0 0 1 2.02-.55c.74 0 1.38.15 1.91.43.56.28.99.7 1.3 1.25.31.56.47 1.25.47 2.09v7.08H46.3v-6.08c0-.77-.14-1.3-.42-1.58a1.4 1.4 0 0 0-1.09-.44 1.73 1.73 0 0 0-1.66 1.06c-.17.37-.25.85-.25 1.45v5.6h-3.62ZM56.06 30.97c-.73 0-1.36-.12-1.92-.36a2.84 2.84 0 0 1-1.27-1.21 4.4 4.4 0 0 1-.47-2.17v-7.1H56v6.25c0 .68.14 1.16.4 1.42.28.27.66.4 1.16.4.25 0 .5-.03.72-.12.23-.1.43-.24.6-.42.17-.2.3-.45.38-.75.1-.31.15-.67.15-1.08v-5.7h3.61v10.63H59.8l-.1-2a3.65 3.65 0 0 1-1.43 1.68c-.61.36-1.35.53-2.21.53ZM70.67 19.91c1.08 0 1.97.16 2.68.47a4 4 0 0 1 1.68 1.21c.41.5.67 1.04.77 1.62l-3.34 1.1a2.63 2.63 0 0 0-.56-1.35c-.25-.32-.63-.47-1.12-.47a2 2 0 0 0-1.15.32c-.3.2-.53.52-.68.98-.16.43-.24 1-.24 1.7s.09 1.26.26 1.7c.17.42.41.74.72.93.31.19.68.28 1.1.28.36 0 .65-.06.88-.2.24-.13.44-.33.6-.59.15-.25.25-.56.3-.93l3.25 1.04c-.1.62-.37 1.18-.81 1.68-.43.48-1 .86-1.7 1.15-.71.28-1.54.42-2.49.42a6.82 6.82 0 0 1-3.04-.63 4.69 4.69 0 0 1-2-1.9 6.05 6.05 0 0 1-.7-3c0-1.16.23-2.15.7-2.97a4.58 4.58 0 0 1 1.96-1.9 6.3 6.3 0 0 1 2.93-.66ZM77.7 30.76V15.62h3.61v6.44a3.4 3.4 0 0 1 1.34-1.6 3.7 3.7 0 0 1 2.02-.55c.74 0 1.38.15 1.92.43.55.28.98.7 1.3 1.25.3.56.46 1.25.46 2.09v7.08h-3.61v-6.08c0-.77-.14-1.3-.43-1.58a1.4 1.4 0 0 0-1.08-.44 1.73 1.73 0 0 0-1.66 1.06c-.17.37-.26.85-.26 1.45v5.6H77.7ZM95.27 16.75v10.23c0 .5.12.87.36 1.1.26.21.6.32 1.04.32.34 0 .63-.04.87-.1.26-.1.49-.21.68-.37l.39 2.24c-.36.25-.8.45-1.34.6a6.49 6.49 0 0 1-3.77-.14 2.8 2.8 0 0 1-1.36-1.08 3.8 3.8 0 0 1-.49-1.98v-9.83l3.62-1Zm3.17 3.38v2.57h-8.62v-2.57h8.62ZM105.3 30.97c-1.18 0-2.2-.22-3.07-.66a4.71 4.71 0 0 1-1.97-1.89 5.93 5.93 0 0 1-.7-2.98c0-1.16.23-2.15.7-2.97a4.74 4.74 0 0 1 1.95-1.9 6.26 6.26 0 0 1 2.92-.66c1.12 0 2.07.22 2.85.66.8.43 1.4 1.02 1.8 1.79.42.75.62 1.62.62 2.6a13.98 13.98 0 0 1-.08 1.4h-8.43v-1.94h6.83l-1.72.66c0-.85-.16-1.5-.47-1.95-.3-.46-.77-.68-1.4-.68-.46 0-.85.1-1.17.31-.31.22-.56.55-.73 1a5.46 5.46 0 0 0-.23 1.75c0 .7.1 1.26.28 1.7.18.42.44.74.78.93.34.19.75.28 1.24.28.54 0 .96-.1 1.27-.32.33-.21.57-.5.73-.9l2.89.97a3.4 3.4 0 0 1-1.04 1.55 4.9 4.9 0 0 1-1.75.93c-.66.22-1.37.32-2.1.32ZM112.42 30.76V20.13h3.2l.14 2.3c.27-.8.67-1.42 1.2-1.86a3.12 3.12 0 0 1 2.04-.66c.27 0 .5.03.68.07.2.04.35.1.46.17l-.36 2.98a4.1 4.1 0 0 0-1.34-.2c-.42 0-.82.1-1.19.28-.37.19-.67.46-.9.83-.2.35-.31.8-.31 1.36v5.36h-3.62ZM121.56 30.76V20.13h3.23l.2 3.66-.4-.4c.13-.77.38-1.41.74-1.92s.82-.9 1.36-1.15c.55-.27 1.17-.4 1.85-.4.74 0 1.37.14 1.91.42.56.28.99.7 1.3 1.25.31.56.47 1.25.47 2.09v7.08h-3.62v-6.12c0-.74-.14-1.25-.42-1.54a1.47 1.47 0 0 0-1.09-.42c-.34 0-.66.08-.95.25-.3.16-.54.42-.7.77-.18.35-.26.83-.26 1.42v5.64h-3.62ZM139.94 30.97c-1.18 0-2.2-.22-3.06-.66a4.72 4.72 0 0 1-1.98-1.89 5.93 5.93 0 0 1-.7-2.98c0-1.16.23-2.15.7-2.97a4.75 4.75 0 0 1 1.96-1.9 6.26 6.26 0 0 1 2.91-.66c1.12 0 2.07.22 2.85.66a4.3 4.3 0 0 1 1.8 1.79c.42.75.63 1.62.63 2.6a13.98 13.98 0 0 1-.09 1.4h-8.42v-1.94h6.82l-1.72.66c0-.85-.15-1.5-.47-1.95-.3-.46-.76-.68-1.4-.68-.45 0-.84.1-1.17.31-.31.22-.55.55-.72 1a5.46 5.46 0 0 0-.24 1.75c0 .7.1 1.26.28 1.7.18.42.45.74.79.93.34.19.75.28 1.23.28.54 0 .96-.1 1.28-.32.32-.21.56-.5.72-.9l2.9.97a3.4 3.4 0 0 1-1.05 1.55 4.9 4.9 0 0 1-1.74.93c-.67.22-1.37.32-2.11.32ZM147.07 30.76V20.13h3.23l.1 2.06c.35-.75.82-1.32 1.43-1.7a4.02 4.02 0 0 1 2.15-.58c.8 0 1.48.18 2.06.54.58.35 1.02.88 1.3 1.57.23-.47.52-.86.87-1.17.37-.31.79-.55 1.26-.7a4.54 4.54 0 0 1 3.31.19c.54.27.97.69 1.28 1.25.33.56.49 1.25.49 2.09v7.08h-3.62v-6.25c0-.68-.13-1.16-.4-1.43-.26-.27-.6-.4-1.04-.4-.36 0-.68.1-.98.28-.28.17-.5.43-.66.78-.16.36-.23.8-.23 1.34v5.68H154v-6.25c0-.68-.13-1.16-.4-1.43a1.4 1.4 0 0 0-1.05-.4c-.32 0-.63.08-.93.25-.28.17-.51.44-.68.81-.17.36-.26.82-.26 1.4v5.62h-3.61ZM173.02 24.02c0-.5-.14-.89-.42-1.17-.27-.3-.64-.45-1.1-.45-.48 0-.88.12-1.22.36-.33.23-.55.64-.68 1.24l-3.06-.73a3.8 3.8 0 0 1 1.57-2.44 6.1 6.1 0 0 1 3.6-.92c1.03 0 1.9.16 2.63.47.74.3 1.3.75 1.68 1.36.4.6.6 1.34.6 2.22v3.89c0 .55.25.83.74.83.26 0 .46-.03.62-.09l-.22 2.06c-.42.2-.94.3-1.55.3-.55 0-1.04-.08-1.47-.25a2.26 2.26 0 0 1-1-.81 2.48 2.48 0 0 1-.36-1.38v-.13l.4-.15a2.2 2.2 0 0 1-.54 1.53c-.36.41-.83.72-1.4.92a5.37 5.37 0 0 1-3.69-.05 2.82 2.82 0 0 1-1.25-.98 2.92 2.92 0 0 1-.43-1.61c0-.77.23-1.4.68-1.9.47-.5 1.2-.86 2.2-1.06l4.01-.83-.02 1.92-2.04.42c-.43.09-.75.21-.96.39-.2.15-.3.4-.3.72 0 .31.12.54.34.7.23.16.5.23.81.23a2.14 2.14 0 0 0 1.28-.42c.17-.16.3-.35.4-.58.1-.22.15-.5.15-.8v-2.81ZM183.24 30.97c-.88 0-1.66-.2-2.32-.63a4.36 4.36 0 0 1-1.53-1.9 7.43 7.43 0 0 1-.54-2.95c0-1.2.19-2.2.56-3.02.38-.83.9-1.46 1.57-1.9a4.21 4.21 0 0 1 2.34-.66c.96 0 1.74.3 2.32.9.6.58.98 1.32 1.15 2.23l-.34.45v-7.87h3.61v15.14h-3.23l-.23-3.61.42.31c-.08.71-.3 1.33-.66 1.85-.34.53-.78.94-1.32 1.24-.52.28-1.12.42-1.8.42Zm1.25-2.65c.41 0 .76-.11 1.04-.32.3-.23.53-.56.68-1 .16-.44.24-.98.24-1.62 0-.6-.08-1.1-.24-1.51a1.85 1.85 0 0 0-.66-.96 1.61 1.61 0 0 0-1.04-.34 1.8 1.8 0 0 0-1.49.7c-.35.46-.53 1.18-.53 2.17 0 1 .18 1.73.53 2.2.36.45.85.68 1.47.68ZM197.7 19.91c1.07 0 1.97.16 2.68.47a4 4 0 0 1 1.68 1.21c.4.5.66 1.04.76 1.62l-3.34 1.1a2.64 2.64 0 0 0-.55-1.35c-.25-.32-.63-.47-1.13-.47a2 2 0 0 0-1.15.32c-.3.2-.52.52-.68.98-.15.43-.23 1-.23 1.7s.08 1.26.25 1.7c.17.42.42.74.73.93.31.19.68.28 1.1.28.36 0 .65-.06.88-.2.24-.13.44-.33.6-.59.15-.25.25-.56.29-.93l3.25 1.04c-.1.62-.37 1.18-.8 1.68-.43.48-1 .86-1.7 1.15-.72.28-1.55.42-2.5.42a6.82 6.82 0 0 1-3.04-.63 4.69 4.69 0 0 1-2-1.9 6.05 6.05 0 0 1-.7-3c0-1.16.24-2.15.7-2.97a4.58 4.58 0 0 1 1.96-1.9 6.3 6.3 0 0 1 2.94-.66ZM204.72 30.76V15.62h3.62v6.44c.31-.7.76-1.24 1.34-1.6a3.7 3.7 0 0 1 2.02-.55c.74 0 1.37.15 1.91.43.56.28.99.7 1.3 1.25.31.56.47 1.25.47 2.09v7.08h-3.62v-6.08c0-.77-.14-1.3-.42-1.58-.27-.3-.63-.44-1.09-.44a1.73 1.73 0 0 0-1.66 1.06c-.17.37-.25.85-.25 1.45v5.6h-3.62ZM223.1 30.97c-1.18 0-2.2-.22-3.06-.66a4.72 4.72 0 0 1-1.98-1.89 5.93 5.93 0 0 1-.7-2.98c0-1.16.23-2.15.7-2.97a4.75 4.75 0 0 1 1.96-1.9 6.26 6.26 0 0 1 2.91-.66c1.12 0 2.07.22 2.85.66a4.3 4.3 0 0 1 1.8 1.79c.42.75.63 1.62.63 2.6a13.98 13.98 0 0 1-.09 1.4h-8.42v-1.94h6.83l-1.73.66c0-.85-.15-1.5-.47-1.95-.3-.46-.76-.68-1.4-.68-.45 0-.84.1-1.17.31-.31.22-.55.55-.72 1a5.46 5.46 0 0 0-.24 1.75c0 .7.1 1.26.28 1.7.18.42.45.74.79.93.34.19.75.28 1.23.28.54 0 .97-.1 1.28-.32.32-.21.56-.5.72-.9l2.9.97a3.4 3.4 0 0 1-1.05 1.55 4.9 4.9 0 0 1-1.74.93c-.67.22-1.37.32-2.1.32ZM230.23 30.76V20.13h3.23l.2 3.66-.41-.4c.14-.77.39-1.41.74-1.92.37-.51.82-.9 1.36-1.15.56-.27 1.17-.4 1.85-.4.74 0 1.38.14 1.92.42.55.28.98.7 1.3 1.25.3.56.46 1.25.46 2.09v7.08h-3.61v-6.12c0-.74-.15-1.25-.43-1.54a1.47 1.47 0 0 0-1.08-.42c-.34 0-.66.08-.96.25-.3.16-.53.42-.7.77-.17.35-.26.83-.26 1.42v5.64h-3.61ZM10.8 37.8c-5.28 0-8.77-.8-10.5-2.38v-9.8l.51.2 1.15.43c1.06.4 2.18.77 3.36 1.13 1.18.34 2.13.51 2.85.51 1.17 0 1.76-.43 1.76-1.3 0-.67-.5-1.39-1.52-2.14-.45-.34-.98-.7-1.56-1.07-.58-.37-1.16-.78-1.76-1.24a13.64 13.64 0 0 1-3.54-3.85 10.67 10.67 0 0 1-1.32-5.56c0-4.9 2.12-8.18 6.37-9.86a16.1 16.1 0 0 1 5.97-1.03 28.73 28.73 0 0 1 8.1 1.22v9.82c-3.2-.83-5.5-1.24-6.89-1.24-.54 0-.94.11-1.21.34-.27.23-.4.48-.4.77 0 .28.11.58.35.9.23.3.64.6 1.21.92.57.3 1.24.67 2 1.1.78.44 1.5.9 2.17 1.4 3 2.24 4.5 5.3 4.5 9.18 0 3.67-1.01 6.52-3.06 8.53-2.06 2-4.91 3-8.55 3.02Z"/><path fill="#91A8EB" d="M10.85 31.97c-4.58 0-7.62-.68-9.12-2.06v-8.52l.44.17 1 .37c.93.35 1.9.68 2.92.99 1.03.3 1.86.44 2.48.44 1.02 0 1.53-.38 1.53-1.13 0-.59-.44-1.2-1.31-1.86-.4-.3-.86-.61-1.37-.93-.5-.33-1-.68-1.53-1.08A11.86 11.86 0 0 1 2.82 15a9.28 9.28 0 0 1-1.15-4.84c0-4.25 1.85-7.1 5.54-8.57A14 14 0 0 1 12.4.7a24.98 24.98 0 0 1 7.04 1.07v8.53c-2.78-.71-4.77-1.07-5.99-1.07-.46 0-.82.1-1.05.3-.24.2-.35.42-.35.66 0 .25.1.51.3.78.2.26.56.53 1.06.8.5.26 1.08.59 1.74.97.68.37 1.3.78 1.89 1.21a9.42 9.42 0 0 1 3.91 7.98c0 3.2-.88 5.67-2.66 7.42-1.8 1.74-4.27 2.61-7.44 2.62Z"/></svg>