<svg xmlns="http://www.w3.org/2000/svg" fill="none" viewBox="0 0 336 63"><path fill="#000" d="M61.27 37.97c1.42 0 2.6.21 3.53.62.95.4 1.69.92 2.21 1.6.54.65.88 1.36 1.01 2.12l-4.4 1.46c-.13-.8-.37-1.4-.72-1.8-.34-.4-.83-.6-1.49-.6-.6 0-1.1.13-1.5.41-.4.26-.7.7-.9 1.3-.21.57-.31 1.32-.31 2.23 0 .92.1 1.66.33 2.24.23.56.54.97.95 1.23.42.25.9.37 1.46.37.47 0 .85-.09 1.15-.26.32-.18.58-.44.78-.78a3 3 0 0 0 .4-1.23l4.28 1.37a4.3 4.3 0 0 1-1.07 2.21 5.8 5.8 0 0 1-2.24 1.51c-.93.38-2.02.56-3.27.56a8.97 8.97 0 0 1-4-.84 6.17 6.17 0 0 1-2.64-2.49 7.97 7.97 0 0 1-.92-3.95c0-1.53.3-2.83.92-3.92a6.03 6.03 0 0 1 2.58-2.49 8.3 8.3 0 0 1 3.86-.87ZM70.52 52.25V32.32h4.76v8.48c.41-.93 1-1.63 1.77-2.1a4.86 4.86 0 0 1 2.66-.73c.97 0 1.8.2 2.52.56.73.38 1.3.93 1.7 1.66.42.72.62 1.64.62 2.74v9.32H79.8v-8c0-1.01-.19-1.7-.56-2.08-.35-.39-.83-.58-1.43-.58a2.27 2.27 0 0 0-2.18 1.4 4.58 4.58 0 0 0-.34 1.9v7.36h-4.76ZM92.62 52.53c-.95 0-1.8-.15-2.52-.47a3.74 3.74 0 0 1-1.68-1.6 5.79 5.79 0 0 1-.62-2.85v-9.36h4.76v8.24c0 .9.18 1.52.53 1.87.36.36.86.53 1.52.53.33 0 .65-.05.95-.16.3-.13.56-.32.78-.56.23-.26.4-.6.5-.98.14-.41.2-.89.2-1.43v-7.5h4.76v14h-4.25l-.14-2.64a4.8 4.8 0 0 1-1.88 2.21c-.8.47-1.77.7-2.91.7ZM111.86 37.97c1.42 0 2.6.21 3.53.62.95.4 1.69.92 2.2 1.6a4.5 4.5 0 0 1 1.02 2.12l-4.4 1.46c-.13-.8-.37-1.4-.73-1.8-.33-.4-.83-.6-1.48-.6-.6 0-1.1.13-1.51.41-.4.26-.7.7-.9 1.3a6.8 6.8 0 0 0-.3 2.23c0 .92.1 1.66.33 2.24.22.56.54.97.95 1.23.41.25.9.37 1.46.37.46 0 .85-.09 1.14-.26.32-.18.58-.44.79-.78a3 3 0 0 0 .4-1.23l4.28 1.37a4.31 4.31 0 0 1-1.07 2.21 5.8 5.8 0 0 1-2.24 1.51 8.8 8.8 0 0 1-3.27.56 8.97 8.97 0 0 1-4-.84 6.17 6.17 0 0 1-2.64-2.49 7.97 7.97 0 0 1-.92-3.95c0-1.53.3-2.83.92-3.92a6.03 6.03 0 0 1 2.58-2.49 8.3 8.3 0 0 1 3.86-.87ZM121.1 52.25V32.32h4.77v8.48c.41-.93 1-1.63 1.76-2.1a4.86 4.86 0 0 1 2.66-.73c.97 0 1.81.2 2.52.56.73.38 1.3.93 1.71 1.66.41.72.62 1.64.62 2.74v9.32h-4.76v-8c0-1.01-.19-1.7-.56-2.08-.36-.39-.83-.58-1.43-.58a2.27 2.27 0 0 0-2.18 1.4 4.58 4.58 0 0 0-.34 1.9v7.36h-4.76ZM144.24 33.8v13.47c0 .67.16 1.16.48 1.46.34.28.8.42 1.37.42.45 0 .83-.05 1.15-.14.33-.12.63-.27.9-.48l.5 2.94c-.47.34-1.06.6-1.76.78-.72.2-1.44.28-2.19.28a7.78 7.78 0 0 1-2.77-.44 3.68 3.68 0 0 1-1.8-1.43 5 5 0 0 1-.64-2.6V35.11l4.76-1.32Zm4.17 4.45v3.4h-11.34v-3.4h11.34ZM157.44 52.53a8.8 8.8 0 0 1-4.03-.86 6.21 6.21 0 0 1-2.6-2.5 7.8 7.8 0 0 1-.93-3.92c0-1.53.31-2.83.93-3.92a6.25 6.25 0 0 1 2.57-2.49 8.24 8.24 0 0 1 3.84-.87c1.48 0 2.73.3 3.75.87a5.67 5.67 0 0 1 2.38 2.35 7 7 0 0 1 .81 3.42 17.85 17.85 0 0 1-.1 1.85h-11.1V43.9h9l-2.28.87c0-1.12-.2-1.98-.61-2.58-.4-.6-1-.9-1.85-.9-.6 0-1.1.15-1.54.43-.4.28-.73.72-.95 1.31-.2.6-.3 1.37-.3 2.3 0 .91.11 1.66.35 2.24.25.56.6.97 1.04 1.23.45.24 1 .36 1.63.36.7 0 1.27-.14 1.68-.42.43-.28.74-.67.95-1.17l3.8 1.26c-.26.8-.71 1.48-1.37 2.04-.63.54-1.4.95-2.3 1.23-.87.28-1.8.42-2.77.42ZM166.83 52.25v-14h4.2l.2 3.03a5.31 5.31 0 0 1 1.56-2.44c.71-.58 1.6-.87 2.69-.87.36 0 .65.03.9.09.26.05.46.13.61.22l-.47 3.92a5.4 5.4 0 0 0-1.76-.25c-.57 0-1.1.12-1.58.36-.48.25-.87.61-1.17 1.1a3.44 3.44 0 0 0-.42 1.79v7.05h-4.76ZM178.86 52.25v-14h4.25l.26 4.82-.53-.53c.18-1 .5-1.85.97-2.52a4.65 4.65 0 0 1 1.8-1.51 5.49 5.49 0 0 1 2.43-.54c.97 0 1.81.2 2.52.56.73.38 1.3.93 1.71 1.66.41.72.62 1.64.62 2.74v9.32h-4.76V44.2c0-.97-.19-1.64-.56-2.02a1.93 1.93 0 0 0-1.43-.56c-.45 0-.87.12-1.26.34-.4.2-.7.54-.92 1-.23.48-.34 1.1-.34 1.88v7.42h-4.76ZM203.06 52.53a8.8 8.8 0 0 1-4.04-.86 6.21 6.21 0 0 1-2.6-2.5 7.8 7.8 0 0 1-.92-3.92c0-1.53.3-2.83.92-3.92a6.25 6.25 0 0 1 2.58-2.49 8.23 8.23 0 0 1 3.83-.87c1.47 0 2.73.3 3.75.87a5.68 5.68 0 0 1 2.38 2.35 7 7 0 0 1 .81 3.42 18.84 18.84 0 0 1-.1 1.85h-11.1V43.9h9l-2.28.87c0-1.12-.2-1.98-.61-2.58-.4-.6-1-.9-1.85-.9-.6 0-1.11.15-1.54.43-.41.28-.73.72-.95 1.31-.2.6-.3 1.37-.3 2.3 0 .91.11 1.66.36 2.24.24.56.58.97 1.03 1.23.45.24.99.36 1.63.36.7 0 1.26-.14 1.68-.42.42-.28.74-.67.95-1.17l3.8 1.26c-.26.8-.71 1.48-1.37 2.04-.63.54-1.4.95-2.3 1.23-.87.28-1.8.42-2.76.42ZM212.44 52.25v-14h4.25l.14 2.72a4.98 4.98 0 0 1 1.88-2.24 5.3 5.3 0 0 1 2.83-.76c1.04 0 1.95.24 2.71.7a4.2 4.2 0 0 1 1.71 2.08c.3-.62.68-1.13 1.15-1.54a4.97 4.97 0 0 1 1.65-.93 5.98 5.98 0 0 1 4.37.25c.7.36 1.27.91 1.68 1.66.43.72.64 1.64.64 2.74v9.32h-4.76v-8.23c0-.9-.17-1.52-.53-1.87a1.8 1.8 0 0 0-1.37-.54c-.47 0-.9.13-1.29.37a2.2 2.2 0 0 0-.87 1.03 4.4 4.4 0 0 0-.3 1.77v7.47h-4.77v-8.23c0-.9-.17-1.52-.53-1.87a1.86 1.86 0 0 0-1.37-.54c-.43 0-.84.12-1.23.34-.37.22-.67.58-.9 1.06a4.3 4.3 0 0 0-.33 1.85v7.4h-4.76ZM246.6 43.38c0-.65-.18-1.17-.55-1.54-.36-.4-.84-.59-1.46-.59-.61 0-1.15.16-1.6.48-.42.3-.72.84-.89 1.62l-4.03-.95a5 5 0 0 1 2.07-3.22c1.12-.8 2.7-1.2 4.73-1.2 1.37 0 2.52.2 3.47.61.98.4 1.71.99 2.22 1.8.52.78.78 1.75.78 2.9v5.13c0 .73.33 1.1.98 1.1.34 0 .6-.05.81-.12l-.28 2.71c-.56.27-1.24.4-2.04.4-.73 0-1.37-.12-1.93-.34-.56-.24-1-.6-1.32-1.06a3.26 3.26 0 0 1-.47-1.82v-.17l.53-.2c0 .8-.25 1.48-.73 2.02-.47.54-1.08.94-1.85 1.2-.75.26-1.53.4-2.35.4-.95 0-1.78-.15-2.5-.45-.7-.3-1.25-.73-1.65-1.3a3.85 3.85 0 0 1-.55-2.12c0-1 .3-1.84.9-2.5a5.18 5.18 0 0 1 2.88-1.4l5.29-1.08-.03 2.52-2.69.56c-.56.1-.98.28-1.26.5-.26.2-.4.52-.4.95 0 .41.16.72.46.93.3.2.65.3 1.06.3.32 0 .62-.04.9-.14.3-.09.56-.23.78-.42.22-.2.4-.45.53-.75s.2-.65.2-1.07v-3.7ZM260.05 52.53a5.55 5.55 0 0 1-3.05-.84A5.76 5.76 0 0 1 255 49.2a9.81 9.81 0 0 1-.7-3.89c0-1.57.24-2.9.72-3.98a5.86 5.86 0 0 1 2.08-2.49c.9-.58 1.92-.87 3.08-.87 1.27 0 2.28.4 3.05 1.18a5.37 5.37 0 0 1 1.51 2.94l-.45.59V32.32h4.76v19.93h-4.25l-.31-4.76.56.42c-.11.94-.4 1.75-.87 2.44a4.82 4.82 0 0 1-1.74 1.62c-.69.38-1.48.56-2.38.56Zm1.66-3.5c.54 0 1-.14 1.37-.42.39-.3.69-.73.9-1.31.2-.58.3-1.29.3-2.13 0-.78-.1-1.45-.3-1.99a2.43 2.43 0 0 0-.87-1.26c-.38-.3-.83-.45-1.38-.45-.82 0-1.47.31-1.96.93-.46.6-.7 1.55-.7 2.85 0 1.31.24 2.27.7 2.89.47.6 1.12.9 1.94.9ZM279.1 37.97c1.41 0 2.59.21 3.52.62.95.4 1.69.92 2.21 1.6a4.5 4.5 0 0 1 1.01 2.12l-4.4 1.46c-.13-.8-.37-1.4-.72-1.8-.34-.4-.83-.6-1.49-.6-.6 0-1.1.13-1.5.41-.4.26-.7.7-.9 1.3-.21.57-.31 1.32-.31 2.23 0 .92.1 1.66.33 2.24.23.56.54.97.95 1.23.42.25.9.37 1.46.37.47 0 .85-.09 1.15-.26.32-.18.58-.44.78-.78a3 3 0 0 0 .4-1.23l4.28 1.37a4.3 4.3 0 0 1-1.06 2.21 5.8 5.8 0 0 1-2.25 1.51c-.93.38-2.02.56-3.27.56a8.97 8.97 0 0 1-4-.84 6.17 6.17 0 0 1-2.64-2.49 7.97 7.97 0 0 1-.92-3.95c0-1.53.3-2.83.92-3.92a6.03 6.03 0 0 1 2.58-2.49 8.3 8.3 0 0 1 3.86-.87ZM288.34 52.25V32.32h4.76v8.48c.41-.93 1-1.63 1.77-2.1a4.86 4.86 0 0 1 2.66-.73c.97 0 1.8.2 2.52.56.73.38 1.3.93 1.7 1.66.42.72.62 1.64.62 2.74v9.32h-4.76v-8c0-1.01-.19-1.7-.56-2.08-.35-.39-.83-.58-1.43-.58a2.27 2.27 0 0 0-2.18 1.4 4.58 4.58 0 0 0-.34 1.9v7.36h-4.76ZM312.54 52.53a8.8 8.8 0 0 1-4.03-.86 6.21 6.21 0 0 1-2.6-2.5 7.8 7.8 0 0 1-.93-3.92c0-1.53.3-2.83.92-3.92a6.25 6.25 0 0 1 2.58-2.49 8.24 8.24 0 0 1 3.83-.87c1.48 0 2.73.3 3.76.87a5.67 5.67 0 0 1 2.38 2.35 7 7 0 0 1 .8 3.42 17.85 17.85 0 0 1-.1 1.85h-11.1V43.9h9l-2.27.87c0-1.12-.2-1.98-.62-2.58-.39-.6-1-.9-1.85-.9-.6 0-1.1.15-1.54.43-.4.28-.72.72-.95 1.31-.2.6-.3 1.37-.3 2.3 0 .91.12 1.66.36 2.24.24.56.59.97 1.04 1.23.44.24.98.36 1.62.36.7 0 1.27-.14 1.68-.42.43-.28.75-.67.95-1.17l3.8 1.26c-.25.8-.71 1.48-1.36 2.04-.64.54-1.4.95-2.3 1.23-.88.28-1.8.42-2.77.42ZM321.92 52.25v-14h4.26l.25 4.82-.53-.53c.19-1 .51-1.85.98-2.52a4.64 4.64 0 0 1 1.79-1.51 5.49 5.49 0 0 1 2.44-.54c.97 0 1.8.2 2.52.56.72.38 1.3.93 1.7 1.66.42.72.62 1.64.62 2.74v9.32h-4.76V44.2c0-.97-.19-1.64-.56-2.02a1.93 1.93 0 0 0-1.43-.56c-.45 0-.87.12-1.26.34-.39.2-.7.54-.92 1-.23.48-.34 1.1-.34 1.88v7.42h-4.76ZM21.6 62.26c-10.74 0-17.87-1.33-21.39-3.99V41.83c.1.03.45.13 1.05.33l2.33.71c2.18.67 4.46 1.3 6.85 1.9 2.42.58 4.36.87 5.82.87 2.4 0 3.59-.73 3.59-2.2 0-1.12-1.03-2.31-3.09-3.58-.93-.58-2-1.17-3.2-1.8a57.27 57.27 0 0 1-3.58-2.08c-3-1.84-5.4-4-7.22-6.46C.96 27.06.07 23.95.07 20.2c0-8.2 4.33-13.72 13-16.55a39.2 39.2 0 0 1 12.16-1.72 70.54 70.54 0 0 1 16.51 2.05v16.47c-6.5-1.39-11.18-2.08-14.03-2.08-1.1 0-1.93.19-2.48.57-.55.39-.82.82-.82 1.3 0 .47.24.98.71 1.5.48.5 1.3 1.02 2.48 1.55 1.17.5 2.54 1.12 4.1 1.86 1.57.72 3.04 1.5 4.4 2.34 6.13 3.75 9.2 8.88 9.2 15.4 0 6.17-2.09 10.94-6.25 14.31-4.21 3.35-10.03 5.04-17.44 5.07Z"/><path fill="#91A8EB" d="M21.73 52.48c-9.34 0-15.54-1.15-18.6-3.46v-14.3l.9.29 2.04.62c1.89.58 3.88 1.13 5.96 1.65 2.1.5 3.78.75 5.05.75 2.08 0 3.12-.63 3.12-1.9 0-.98-.9-2.02-2.68-3.12-.81-.5-1.74-1.02-2.78-1.56a49.8 49.8 0 0 1-3.12-1.81 22 22 0 0 1-6.27-5.62C3.79 21.88 3 19.17 3 15.91 3 8.77 6.77 3.97 14.3 1.5c3.05-1 6.58-1.5 10.58-1.5A61.34 61.34 0 0 1 39.24 1.8v14.32c-5.66-1.2-9.72-1.8-12.2-1.8-.96 0-1.68.16-2.15.5-.48.33-.72.7-.72 1.12 0 .41.2.85.62 1.3.42.44 1.14.9 2.16 1.35 1.02.44 2.2.98 3.55 1.62 1.38.63 2.66 1.3 3.84 2.03 5.33 3.27 8 7.73 8 13.4 0 5.36-1.82 9.51-5.44 12.44-3.66 2.92-8.72 4.38-15.17 4.4Z"/></svg>