<?xml version="1.0" standalone="no"?>
<!DOCTYPE svg PUBLIC "-//W3C//DTD SVG 20010904//EN"
 "http://www.w3.org/TR/2001/REC-SVG-20010904/DTD/svg10.dtd">
<svg version="1.0" xmlns="http://www.w3.org/2000/svg"
 width="640.000000pt" height="640.000000pt" viewBox="0 0 640.000000 640.000000"
 preserveAspectRatio="xMidYMid meet">
<metadata>
Created by potrace 1.14, written by Peter Selinger 2001-2017
</metadata>
<g transform="translate(0.000000,640.000000) scale(0.100000,-0.100000)"
fill="#000000" stroke="none">
<path d="M1475 6089 c-22 -5 -60 -11 -85 -14 -44 -5 -80 -12 -90 -15 -3 -1 -8
-2 -11 -2 -8 1 -148 -36 -169 -45 -8 -3 -23 -8 -33 -9 -49 -10 -299 -129 -305
-145 -2 -5 -8 -9 -13 -9 -11 0 -117 -70 -140 -92 -8 -7 -30 -25 -49 -40 -88
-67 -216 -207 -302 -333 -130 -190 -216 -409 -264 -675 -13 -71 -11 -364 2
-445 20 -122 21 -123 64 -280 18 -65 112 -339 120 -350 4 -5 11 -21 15 -35 4
-14 15 -43 25 -65 10 -22 32 -74 50 -115 18 -41 52 -114 76 -162 24 -49 45
-91 45 -95 0 -5 5 -13 10 -20 6 -6 22 -35 38 -65 15 -29 37 -70 49 -90 12 -21
30 -53 41 -70 50 -88 186 -301 219 -343 4 -5 32 -44 61 -85 30 -41 58 -76 63
-78 4 -2 8 -8 8 -14 0 -10 70 -101 83 -106 4 -2 7 -8 7 -13 0 -5 8 -17 18 -27
9 -10 28 -33 42 -51 14 -18 32 -40 40 -49 9 -10 45 -51 80 -92 36 -41 81 -93
100 -115 55 -63 428 -434 498 -495 34 -30 79 -71 100 -90 21 -19 57 -51 81
-70 24 -19 48 -40 55 -45 6 -6 36 -30 66 -55 30 -25 57 -47 60 -51 3 -3 41
-33 85 -67 44 -34 85 -65 90 -70 6 -4 39 -30 75 -57 36 -27 70 -53 75 -57 37
-30 148 -109 164 -118 11 -5 25 -16 33 -23 11 -11 143 -101 263 -181 22 -14
47 -31 55 -36 8 -6 64 -42 123 -80 l108 -70 87 57 c93 62 115 76 150 94 12 7
22 16 22 21 0 4 6 8 13 8 8 0 22 9 32 20 10 11 22 20 26 20 10 0 143 92 147
102 2 4 9 8 16 8 7 0 21 8 32 18 10 9 32 26 49 36 16 11 34 23 40 28 5 5 78
59 160 120 83 61 152 115 153 120 2 4 9 8 14 8 6 0 23 11 37 25 14 13 69 59
121 101 52 42 97 80 98 85 2 5 8 9 13 9 6 0 20 10 33 23 13 12 54 49 92 82 38
33 79 70 91 82 13 12 23 20 23 17 0 -6 418 412 475 477 164 183 248 284 368
444 25 33 55 72 66 86 45 59 229 337 235 357 4 12 12 22 17 22 5 0 9 7 9 15 0
8 5 15 10 15 6 0 10 4 10 9 0 5 22 47 48 93 26 46 63 115 82 153 19 39 37 72
40 75 30 30 254 571 275 665 3 11 9 31 14 45 30 76 73 256 88 363 10 66 9 356
-1 422 -4 28 -17 88 -28 135 -11 47 -21 92 -23 100 -21 88 -120 299 -196 417
-102 155 -259 321 -404 423 -52 37 -202 130 -210 130 -3 0 -33 14 -67 31 -35
17 -70 32 -78 34 -8 2 -49 16 -90 30 -41 15 -86 29 -100 31 -14 3 -50 11 -80
19 -168 42 -462 52 -606 21 -12 -2 -37 -7 -55 -10 -19 -3 -45 -8 -59 -11 -14
-3 -34 -8 -46 -10 -33 -7 -175 -55 -214 -72 -78 -34 -165 -78 -168 -85 -2 -5
-8 -8 -14 -8 -14 0 -164 -99 -218 -144 -197 -165 -349 -359 -445 -571 -52
-114 -52 -113 -76 -188 -15 -46 -25 -64 -30 -55 -5 7 -9 22 -9 33 0 12 -4 25
-8 30 -5 6 -15 30 -22 55 -16 51 -86 202 -126 270 -108 186 -294 381 -489 514
-111 76 -357 190 -457 212 -5 1 -9 2 -10 4 -4 2 -22 6 -67 15 -19 3 -37 7 -40
9 -3 2 -26 7 -51 10 -25 3 -56 8 -70 11 -43 10 -313 12 -355 4z"/>
</g>
</svg>
