<?xml version="1.0" standalone="no"?>
<!DOCTYPE svg PUBLIC "-//W3C//DTD SVG 20010904//EN"
 "http://www.w3.org/TR/2001/REC-SVG-20010904/DTD/svg10.dtd">
<svg version="1.0" xmlns="http://www.w3.org/2000/svg"
 width="1008.000000pt" height="1008.000000pt" viewBox="0 0 1008.000000 1008.000000"
 preserveAspectRatio="xMidYMid meet">
<metadata>
Created by potrace 1.14, written by Peter Selinger 2001-2017
</metadata>
<g transform="translate(0.000000,1008.000000) scale(0.100000,-0.100000)"
fill="#000000" stroke="none">
<path d="M5507 10004 c-3 -4 -104 -8 -224 -9 -120 -2 -245 -6 -278 -9 -33 -3
-96 -8 -140 -11 -44 -4 -93 -8 -110 -10 -16 -2 -59 -7 -95 -11 -36 -3 -76 -8
-90 -9 -14 -2 -25 -4 -25 -5 0 -1 -9 -3 -90 -14 -22 -3 -53 -8 -70 -11 -16 -3
-55 -10 -85 -16 -30 -6 -64 -12 -75 -14 -47 -8 -81 -16 -94 -21 -8 -2 -28 -7
-45 -10 -17 -2 -101 -25 -186 -49 -85 -25 -162 -47 -170 -49 -8 -3 -40 -14
-70 -25 -30 -11 -75 -27 -100 -36 -25 -9 -64 -25 -87 -35 -24 -11 -50 -20 -58
-20 -8 0 -15 -4 -15 -10 0 -5 -9 -10 -19 -10 -11 0 -23 -4 -26 -10 -3 -5 -14
-10 -24 -10 -10 0 -24 -7 -31 -15 -7 -8 -18 -15 -25 -15 -7 0 -41 -16 -74 -34
-34 -19 -61 -32 -61 -29 0 3 -9 -2 -20 -12 -11 -10 -20 -14 -20 -9 0 5 -4 4
-8 -2 -4 -6 -29 -24 -57 -40 -55 -31 -223 -142 -241 -159 -6 -5 -29 -23 -50
-40 -100 -78 -247 -220 -319 -309 -22 -27 -46 -55 -52 -62 -7 -7 -13 -17 -13
-23 0 -5 -6 -14 -13 -18 -7 -4 -27 -30 -44 -58 -18 -27 -78 -96 -135 -155 -57
-58 -122 -127 -143 -155 -22 -27 -46 -56 -54 -65 -7 -8 -40 -53 -72 -100 -32
-47 -63 -90 -69 -97 -5 -7 -10 -18 -10 -24 0 -7 -6 -20 -14 -28 -18 -20 -108
-198 -140 -276 -31 -77 -96 -265 -92 -265 2 0 -5 -28 -15 -62 -11 -34 -22 -78
-26 -98 -7 -47 -8 -52 -15 -75 -4 -11 -9 -40 -12 -65 -3 -25 -8 -56 -11 -70
-6 -27 -12 -87 -22 -215 -16 -193 -2 -631 23 -735 4 -14 8 -36 9 -50 7 -63 43
-227 57 -260 5 -14 12 -36 14 -50 3 -14 13 -50 24 -80 72 -213 176 -414 299
-580 120 -161 164 -211 341 -391 262 -265 470 -425 895 -689 82 -51 158 -95
167 -98 10 -2 18 -8 18 -13 0 -5 6 -9 13 -9 6 0 23 -9 37 -20 26 -20 21 -27
-8 -11 -9 5 -33 12 -52 15 -19 3 -111 26 -205 52 -93 25 -177 47 -185 49 -8 2
-15 4 -15 5 0 1 -11 4 -25 7 -30 6 -41 8 -60 15 -8 3 -42 13 -75 23 -33 9
-103 29 -155 45 -52 16 -151 45 -220 65 -69 20 -132 39 -140 42 -8 3 -20 7
-27 9 -18 3 -86 24 -108 33 -41 17 -92 31 -108 31 -9 0 -17 5 -17 11 0 5 -4 8
-9 4 -6 -3 -10 -243 -10 -608 0 -331 0 -618 -1 -639 0 -32 -2 -36 -22 -31 -13
3 -27 9 -33 13 -5 3 -30 12 -55 19 -25 8 -61 18 -80 25 -19 6 -39 11 -45 11
-5 1 -41 12 -80 25 -38 13 -71 23 -72 22 -2 -1 -18 5 -38 14 -19 8 -36 13 -36
12 -1 -2 -2 -592 -3 -1313 l-1 -1310 24 -23 c33 -31 169 -112 272 -163 76 -38
299 -129 324 -133 5 -1 15 -4 20 -7 6 -4 24 -10 40 -14 44 -12 45 -12 50 -15
3 -1 8 -3 13 -4 4 -2 27 -8 52 -15 25 -7 55 -15 67 -17 12 -2 34 -9 48 -14 14
-5 25 -7 25 -4 0 2 8 0 19 -5 10 -6 33 -13 51 -16 17 -3 69 -14 113 -24 45
-11 98 -22 117 -25 19 -3 60 -10 90 -16 30 -6 71 -13 90 -16 19 -3 44 -7 55
-9 11 -1 43 -6 70 -9 28 -4 65 -11 83 -16 19 -5 30 -5 27 1 -4 5 5 5 20 -1 23
-9 98 -20 145 -22 8 0 47 -4 85 -8 87 -11 182 -20 260 -25 33 -2 87 -7 120 -9
146 -12 377 -23 653 -31 89 -2 167 -7 174 -11 7 -4 8 -3 4 5 -7 11 15 10 60
-4 6 -2 17 1 24 5 8 5 18 6 24 3 12 -8 102 -7 115 1 5 4 12 3 14 -1 6 -9 160
-8 183 1 8 3 14 0 14 -7 0 -7 3 -8 8 -2 9 12 62 14 62 2 0 -4 5 -5 11 -1 6 3
48 8 92 10 45 2 116 6 157 9 41 4 104 8 140 10 73 5 126 10 185 19 22 3 64 8
94 11 51 6 63 8 121 20 14 2 45 7 70 10 25 3 52 8 61 11 10 3 30 6 45 8 16 2
81 16 144 31 63 14 126 28 139 31 13 3 32 9 43 15 10 5 18 8 18 6 0 -3 37 7
83 20 45 14 94 28 110 30 15 3 27 10 27 16 0 6 3 8 6 4 4 -3 23 1 43 9 20 9
43 17 51 19 14 3 104 36 145 54 11 5 49 21 85 36 80 34 215 100 295 145 95 53
98 55 109 63 32 24 119 77 127 77 5 0 9 4 9 8 0 4 15 16 33 27 31 18 140 98
163 120 6 5 40 35 75 65 133 115 395 404 417 460 3 8 9 17 12 20 13 9 96 144
136 220 21 41 42 77 47 78 4 2 7 9 7 15 0 7 11 33 25 59 14 27 25 50 25 53 1
3 9 24 19 47 29 67 101 278 96 278 -3 0 1 13 9 29 9 16 13 31 11 33 -5 4 5 41
22 88 3 8 7 22 8 30 4 23 14 78 30 155 7 39 17 97 20 130 4 33 9 74 11 90 25
230 25 641 -1 815 -2 19 -7 53 -10 75 -9 75 -53 284 -63 300 -3 5 -7 16 -7 25
-5 58 -100 303 -176 455 -44 86 -47 92 -96 172 -18 30 -33 58 -33 63 0 6 -4
10 -8 10 -5 0 -15 12 -23 28 -8 15 -22 36 -31 46 -10 11 -18 26 -18 33 0 7 -4
13 -9 13 -10 0 -19 23 -27 67 -17 97 -71 287 -100 350 -8 17 -14 34 -14 38 0
14 -91 203 -136 284 -25 45 -144 225 -153 231 -4 3 -18 21 -31 40 -13 19 -27
37 -30 40 -3 3 -33 38 -68 77 -60 69 -176 185 -232 233 -14 12 -36 31 -50 43
-32 29 -186 147 -224 172 -131 88 -206 137 -233 151 -18 9 -33 20 -33 25 0 5
-7 9 -16 9 -9 0 -28 8 -42 19 -15 10 -63 37 -107 61 -44 23 -85 45 -90 50 -6
5 -22 11 -38 15 -15 4 -27 10 -27 14 0 7 -61 34 -72 32 -5 0 -8 4 -8 9 0 6 -4
10 -9 10 -5 0 -53 21 -108 46 -54 25 -129 61 -168 79 -38 18 -92 43 -120 55
-27 12 -79 36 -115 52 -92 43 -114 51 -122 50 -5 -1 -8 2 -8 8 0 5 -9 10 -20
10 -11 0 -20 5 -20 12 0 6 -3 8 -6 5 -8 -8 -44 10 -44 22 0 4 6 8 13 9 37 2
311 1 362 -3 155 -10 203 -14 235 -20 19 -3 62 -7 95 -9 33 -3 60 -5 60 -6 0
-1 32 -6 111 -15 29 -3 60 -7 70 -9 11 -2 44 -7 74 -11 30 -4 64 -9 75 -11 11
-2 38 -6 60 -9 22 -3 67 -10 100 -16 33 -6 71 -13 85 -15 39 -5 130 -20 180
-30 50 -10 131 -24 183 -33 28 -5 63 -12 77 -15 14 -3 36 -8 50 -10 14 -2 59
-11 100 -20 41 -8 87 -17 103 -20 15 -3 35 -7 45 -10 9 -3 34 -7 56 -11 21 -3
41 -7 45 -9 3 -2 24 -7 46 -10 22 -4 68 -13 103 -21 35 -8 65 -15 68 -15 2 0
4 593 4 1318 l0 1318 -77 18 c-43 10 -91 20 -108 23 -16 3 -38 9 -47 14 -10 5
-18 8 -18 5 0 -3 -14 -1 -32 4 -17 5 -50 12 -72 16 -23 3 -42 7 -44 9 -1 1 -3
59 -3 128 l0 126 -37 10 c-45 12 -209 52 -237 57 -11 2 -33 7 -50 11 -16 4
-32 7 -35 8 -11 2 -106 19 -115 20 -5 1 -21 5 -35 8 -14 4 -42 9 -64 12 -21 3
-41 7 -45 9 -3 2 -28 7 -56 10 -78 11 -117 17 -160 26 -22 4 -47 8 -55 8 -8 0
-26 3 -39 6 -13 3 -49 8 -80 11 -31 4 -69 9 -86 12 -35 6 -67 10 -150 17 -33
3 -71 8 -85 10 -14 3 -54 7 -90 10 -36 3 -92 8 -125 11 -170 14 -362 25 -548
29 -57 2 -108 6 -114 9 -6 4 -13 4 -16 1z"/>
</g>
</svg>
